# xmcd
#
# Track frame offsets: 
#        150
#        10297
#        32169
#        49389
#        64945
#        79010
#        92464
#        103344
#        123458
#        138755
#        153775
#
# Disc length: 2308 seconds
#
# Revision: 0
# Processed by: cddbd v1.5.2PL0 Copyright (c) Steve Scherf et al.
# Submitted via: ExactAudioCopyFreeDBPlugin 1.0
#
DISCID=8a09020b
DTITLE=Nobile Countryband - drops in the bucket
DYEAR=1900
DGENRE=Country
TTITLE0=looking at country
TTITLE1=redneck mother
TTITLE2=mountain music
TTITLE3=don't say good bye
TTITLE4=long time ago
TTITLE5=rubest cowboy
TTITLE6=two dollars in the juke-box
TTITLE7=island in the stream
TTITLE8=forty acres
TTITLE9=high horsed woman
TTITLE10=killing me softly
EXTD=
EXTT0=
EXTT1=
EXTT2=
EXTT3=
EXTT4=
EXTT5=
EXTT6=
EXTT7=
EXTT8=
EXTT9=
EXTT10=
PLAYORDER=
